<svg width="362" height="1024" viewBox="0 0 362 1024" fill="none" xmlns="http://www.w3.org/2000/svg">
<path d="M0 444.145V1024H362V444.145L342.283 227.213L295.752 0H64.671L20.5054 222.072L0 444.145Z" fill="url(#paint0_linear_299_165)"/>
<path fill-rule="evenodd" clip-rule="evenodd" d="M325.8 301V1022H41.0266V301V297H41.0592C42.6972 196.674 105.804 116 183.413 116C261.022 116 324.129 196.674 325.767 297H325.8V301Z" fill="white" fill-opacity="0.8"/>
<path d="M93.468 307L100.164 294.868L93.9 283.456H98.544L101.136 288.676C101.424 289.204 101.7 289.768 101.964 290.368C102.252 290.944 102.576 291.58 102.936 292.276H103.08C103.368 291.58 103.632 290.944 103.872 290.368C104.136 289.768 104.4 289.204 104.664 288.676L107.148 283.456H111.576L105.312 295.048L112.008 307H107.364L104.484 301.456C104.172 300.832 103.86 300.22 103.548 299.62C103.26 298.996 102.936 298.324 102.576 297.604H102.432C102.12 298.324 101.82 298.996 101.532 299.62C101.268 300.22 100.992 300.832 100.704 301.456L97.896 307H93.468Z" fill="black"/>
<path d="M180.664 377V373.616H185.776V358.568H181.564V355.976C182.692 355.76 183.676 355.508 184.516 355.22C185.356 354.908 186.136 354.536 186.856 354.104H189.952V373.616H194.452V377H180.664Z" fill="black"/>
<path d="M186.64 484.432C184.792 484.432 183.232 484.12 181.96 483.496C180.712 482.848 179.68 482.08 178.864 481.192L180.844 478.528C181.54 479.224 182.332 479.824 183.22 480.328C184.108 480.808 185.128 481.048 186.28 481.048C187.528 481.048 188.536 480.748 189.304 480.148C190.096 479.524 190.492 478.672 190.492 477.592C190.492 476.8 190.288 476.116 189.88 475.54C189.496 474.94 188.812 474.484 187.828 474.172C186.868 473.86 185.512 473.704 183.76 473.704V470.68C186.016 470.68 187.576 470.332 188.44 469.636C189.304 468.94 189.736 468.064 189.736 467.008C189.736 466.048 189.436 465.304 188.836 464.776C188.236 464.224 187.408 463.948 186.352 463.948C185.464 463.948 184.648 464.152 183.904 464.56C183.16 464.944 182.44 465.46 181.744 466.108L179.62 463.552C180.604 462.688 181.648 461.992 182.752 461.464C183.88 460.936 185.128 460.672 186.496 460.672C188.704 460.672 190.492 461.2 191.86 462.256C193.228 463.288 193.912 464.776 193.912 466.72C193.912 467.992 193.552 469.072 192.832 469.96C192.136 470.824 191.164 471.496 189.916 471.976V472.12C191.26 472.48 192.388 473.14 193.3 474.1C194.212 475.06 194.668 476.296 194.668 477.808C194.668 479.2 194.296 480.388 193.552 481.372C192.832 482.356 191.86 483.112 190.636 483.64C189.436 484.168 188.104 484.432 186.64 484.432Z" fill="black"/>
<path d="M179.368 430V427.588C181.504 425.524 183.34 423.688 184.876 422.08C186.436 420.448 187.636 418.972 188.476 417.652C189.316 416.308 189.736 415.06 189.736 413.908C189.736 412.708 189.412 411.748 188.764 411.028C188.116 410.308 187.18 409.948 185.956 409.948C185.068 409.948 184.252 410.2 183.508 410.704C182.788 411.208 182.116 411.808 181.492 412.504L179.188 410.2C180.244 409.072 181.336 408.208 182.464 407.608C183.592 406.984 184.936 406.672 186.496 406.672C188.704 406.672 190.456 407.308 191.752 408.58C193.072 409.852 193.732 411.556 193.732 413.692C193.732 415.036 193.348 416.416 192.58 417.832C191.836 419.224 190.828 420.652 189.556 422.116C188.308 423.58 186.928 425.116 185.416 426.724C186.016 426.676 186.664 426.628 187.36 426.58C188.056 426.508 188.68 426.472 189.232 426.472H194.848V430H179.368Z" fill="black"/>
<path d="M272.912 307V298.252L265.856 283.456H270.32L272.876 289.468C273.212 290.356 273.548 291.22 273.884 292.06C274.22 292.876 274.58 293.74 274.964 294.652H275.108C275.492 293.74 275.864 292.876 276.224 292.06C276.584 291.22 276.932 290.356 277.268 289.468L279.824 283.456H284.18L277.088 298.252V307H272.912Z" fill="black"/>
<path d="M179.22 619V616.18H183.48V603.64H179.97V601.48C180.91 601.3 181.73 601.09 182.43 600.85C183.13 600.59 183.78 600.28 184.38 599.92H186.96V616.18H190.71V619H179.22Z" fill="black"/>
<path d="M178.216 678V675.856C180.115 674.021 181.747 672.389 183.112 670.96C184.499 669.509 185.565 668.197 186.312 667.024C187.059 665.829 187.432 664.72 187.432 663.696C187.432 662.629 187.144 661.776 186.568 661.136C185.992 660.496 185.16 660.176 184.072 660.176C183.283 660.176 182.557 660.4 181.896 660.848C181.256 661.296 180.659 661.829 180.104 662.448L178.056 660.4C178.995 659.397 179.965 658.629 180.968 658.096C181.971 657.541 183.165 657.264 184.552 657.264C186.515 657.264 188.072 657.829 189.224 658.96C190.397 660.091 190.984 661.605 190.984 663.504C190.984 664.699 190.643 665.925 189.96 667.184C189.299 668.421 188.403 669.691 187.272 670.992C186.163 672.293 184.936 673.659 183.592 675.088C184.125 675.045 184.701 675.003 185.32 674.96C185.939 674.896 186.493 674.864 186.984 674.864H191.976V678H178.216Z" fill="black"/>
<path d="M184.68 737.384C183.037 737.384 181.651 737.107 180.52 736.552C179.411 735.976 178.493 735.293 177.768 734.504L179.528 732.136C180.147 732.755 180.851 733.288 181.64 733.736C182.429 734.163 183.336 734.376 184.36 734.376C185.469 734.376 186.365 734.109 187.048 733.576C187.752 733.021 188.104 732.264 188.104 731.304C188.104 730.6 187.923 729.992 187.56 729.48C187.219 728.947 186.611 728.541 185.736 728.264C184.883 727.987 183.677 727.848 182.12 727.848V725.16C184.125 725.16 185.512 724.851 186.28 724.232C187.048 723.613 187.432 722.835 187.432 721.896C187.432 721.043 187.165 720.381 186.632 719.912C186.099 719.421 185.363 719.176 184.424 719.176C183.635 719.176 182.909 719.357 182.248 719.72C181.587 720.061 180.947 720.52 180.328 721.096L178.44 718.824C179.315 718.056 180.243 717.437 181.224 716.968C182.227 716.499 183.336 716.264 184.552 716.264C186.515 716.264 188.104 716.733 189.32 717.672C190.536 718.589 191.144 719.912 191.144 721.64C191.144 722.771 190.824 723.731 190.184 724.52C189.565 725.288 188.701 725.885 187.592 726.312V726.44C188.787 726.76 189.789 727.347 190.6 728.2C191.411 729.053 191.816 730.152 191.816 731.496C191.816 732.733 191.485 733.789 190.824 734.664C190.184 735.539 189.32 736.211 188.232 736.68C187.165 737.149 185.981 737.384 184.68 737.384Z" fill="black"/>
<path d="M181.224 787.904H186.568V783.296C186.568 782.699 186.589 781.995 186.632 781.184C186.675 780.373 186.707 779.669 186.728 779.072H186.6C186.344 779.605 186.077 780.128 185.8 780.64C185.523 781.152 185.235 781.685 184.936 782.24L181.224 787.904ZM186.568 796V790.752H177.576V788.256L185.64 775.648H190.024V787.904H192.584V790.752H190.024V796H186.568Z" fill="black"/>
<path d="M184.712 855.384C183.069 855.384 181.683 855.107 180.552 854.552C179.443 853.976 178.515 853.315 177.768 852.568L179.464 850.2C180.083 850.776 180.776 851.288 181.544 851.736C182.312 852.163 183.208 852.376 184.232 852.376C185.363 852.376 186.301 852.035 187.048 851.352C187.795 850.669 188.168 849.709 188.168 848.472C188.168 847.256 187.827 846.317 187.144 845.656C186.461 844.995 185.555 844.664 184.424 844.664C183.763 844.664 183.208 844.76 182.76 844.952C182.312 845.123 181.779 845.411 181.16 845.816L179.4 844.696L180.008 834.648H190.888V837.752H183.208L182.792 842.68C183.219 842.467 183.635 842.307 184.04 842.2C184.467 842.072 184.947 842.008 185.48 842.008C186.653 842.008 187.72 842.232 188.68 842.68C189.64 843.128 190.408 843.821 190.984 844.76C191.581 845.699 191.88 846.904 191.88 848.376C191.88 849.848 191.539 851.107 190.856 852.152C190.195 853.197 189.32 853.997 188.232 854.552C187.144 855.107 185.971 855.384 184.712 855.384Z" fill="black"/>
<path d="M185.576 904.08C185 904.08 184.392 904.261 183.752 904.624C183.112 904.965 182.504 905.563 181.928 906.416C182.12 908.229 182.557 909.541 183.24 910.352C183.923 911.163 184.755 911.568 185.736 911.568C186.589 911.568 187.304 911.237 187.88 910.576C188.477 909.893 188.776 908.933 188.776 907.696C188.776 906.501 188.488 905.605 187.912 905.008C187.357 904.389 186.579 904.08 185.576 904.08ZM185.8 914.384C184.477 914.384 183.251 914.032 182.12 913.328C180.989 912.624 180.083 911.536 179.4 910.064C178.739 908.592 178.408 906.715 178.408 904.432C178.408 901.787 178.781 899.653 179.528 898.032C180.296 896.389 181.288 895.184 182.504 894.416C183.72 893.648 185.021 893.264 186.408 893.264C187.645 893.264 188.712 893.488 189.608 893.936C190.504 894.384 191.251 894.928 191.848 895.568L189.864 897.808C189.501 897.36 189.021 896.997 188.424 896.72C187.848 896.421 187.251 896.272 186.632 896.272C185.779 896.272 185 896.507 184.296 896.976C183.592 897.445 183.016 898.235 182.568 899.344C182.141 900.432 181.896 901.915 181.832 903.792C182.429 903.045 183.133 902.459 183.944 902.032C184.755 901.605 185.523 901.392 186.248 901.392C188.019 901.392 189.448 901.915 190.536 902.96C191.645 903.984 192.2 905.563 192.2 907.696C192.2 909.04 191.901 910.213 191.304 911.216C190.728 912.219 189.96 912.997 189 913.552C188.04 914.107 186.973 914.384 185.8 914.384Z" fill="black"/>
<path d="M182.376 973C182.504 970.589 182.76 968.435 183.144 966.536C183.528 964.616 184.115 962.792 184.904 961.064C185.693 959.336 186.739 957.565 188.04 955.752H178.408V952.648H192.072V954.888C190.877 956.36 189.907 957.768 189.16 959.112C188.435 960.456 187.859 961.821 187.432 963.208C187.027 964.573 186.728 966.056 186.536 967.656C186.344 969.235 186.205 971.016 186.12 973H182.376Z" fill="black"/>
<path d="M86.944 549.864L86.208 552.424H91.552L90.816 549.864C90.4747 548.755 90.144 547.613 89.824 546.44C89.5253 545.267 89.2267 544.104 88.928 542.952H88.8C88.5227 544.125 88.224 545.299 87.904 546.472C87.6053 547.624 87.2853 548.755 86.944 549.864ZM79.936 561L86.752 540.072H91.104L97.92 561H94.016L92.384 555.336H85.344L83.712 561H79.936Z" fill="black"/>
<path d="M134.656 561V540.072H141.344C142.795 540.072 144.075 540.232 145.184 540.552C146.315 540.872 147.2 541.416 147.84 542.184C148.501 542.931 148.832 543.944 148.832 545.224C148.832 546.205 148.576 547.133 148.064 548.008C147.552 548.861 146.837 549.448 145.92 549.768V549.896C147.072 550.152 148.021 550.696 148.768 551.528C149.536 552.339 149.92 553.448 149.92 554.856C149.92 556.243 149.568 557.395 148.864 558.312C148.181 559.229 147.232 559.912 146.016 560.36C144.8 560.787 143.424 561 141.888 561H134.656ZM138.368 548.712H141.024C142.475 548.712 143.531 548.445 144.192 547.912C144.853 547.379 145.184 546.664 145.184 545.768C145.184 544.744 144.843 544.019 144.16 543.592C143.477 543.165 142.453 542.952 141.088 542.952H138.368V548.712ZM138.368 558.12H141.504C143.04 558.12 144.224 557.843 145.056 557.288C145.888 556.712 146.304 555.837 146.304 554.664C146.304 553.555 145.899 552.755 145.088 552.264C144.277 551.752 143.083 551.496 141.504 551.496H138.368V558.12Z" fill="black"/>
<path d="M234.008 561.384C232.259 561.384 230.669 560.968 229.24 560.136C227.811 559.304 226.669 558.088 225.816 556.488C224.984 554.867 224.568 552.904 224.568 550.6C224.568 548.317 224.995 546.365 225.848 544.744C226.723 543.101 227.885 541.853 229.336 541C230.787 540.125 232.387 539.688 234.136 539.688C235.459 539.688 236.632 539.955 237.656 540.488C238.68 541.021 239.523 541.64 240.184 542.344L238.2 544.744C237.667 544.189 237.069 543.752 236.408 543.432C235.768 543.091 235.043 542.92 234.232 542.92C233.101 542.92 232.088 543.229 231.192 543.848C230.317 544.445 229.624 545.309 229.112 546.44C228.621 547.571 228.376 548.925 228.376 550.504C228.376 552.893 228.899 554.771 229.944 556.136C230.989 557.48 232.387 558.152 234.136 558.152C235.075 558.152 235.907 557.96 236.632 557.576C237.357 557.171 238.019 556.648 238.616 556.008L240.6 558.344C239.747 559.325 238.765 560.083 237.656 560.616C236.568 561.128 235.352 561.384 234.008 561.384Z" fill="black"/>
<path d="M278.656 561V540.072H284.256C287.456 540.072 289.952 540.936 291.744 542.664C293.536 544.392 294.432 546.984 294.432 550.44C294.432 553.917 293.547 556.552 291.776 558.344C290.005 560.115 287.563 561 284.448 561H278.656ZM282.368 557.992H284C286.112 557.992 287.744 557.384 288.896 556.168C290.048 554.931 290.624 553.021 290.624 550.44C290.624 547.88 290.048 546.013 288.896 544.84C287.744 543.667 286.112 543.08 284 543.08H282.368V557.992Z" fill="black"/>
<defs>
<linearGradient id="paint0_linear_299_165" x1="181.383" y1="-130.5" x2="181.383" y2="1261" gradientUnits="userSpaceOnUse">
<stop stop-color="white" stop-opacity="0"/>
<stop offset="0.614583" stop-color="white" stop-opacity="0.59375"/>
<stop offset="1" stop-color="white"/>
</linearGradient>
</defs>
</svg>
