<svg width="194" height="74" viewBox="0 0 194 74" fill="none" xmlns="http://www.w3.org/2000/svg">
<line x1="0.574707" y1="36" x2="60.5747" y2="36" stroke="black" stroke-opacity="0.25" stroke-width="2"/>
<circle cx="97" cy="37" r="24.7082" fill="url(#paint0_linear_70_350)"/>
<path d="M97.0579 35.1344L87.8802 38.906C89.5292 40.714 95.7691 40.2233 98.7753 39.9073L108.172 36.7732L117.234 33.3441C119.649 32.0335 113.334 30.9469 112.884 30.9943C112.433 31.0417 109.478 31.8476 109.478 31.8476L109.276 31.3735L110.977 30.2041C109.84 29.7952 107.797 30.3181 106.919 30.6306L101.563 33.1749L102.134 34.2706L88.8605 25.0984L94.1079 31.6468C91.6305 34.6811 93.9689 33.6978 95.4477 32.8269L99.9393 37.9687L97.0579 35.1344Z" fill="white"/>
<path d="M83.703 45.4316L97.0894 41.2176C96.0072 41.3314 92.7132 41.5125 91.4764 41.3122C88.6267 40.8509 87.2293 39.9424 82.8105 36.9394C79.2754 34.537 76.825 34.454 76.208 34.8491C77.1628 35.7394 79.5346 37.3373 80.8653 38.6753C82.0548 39.8712 83.4708 41.7763 82.6082 42.2443C79.589 43.8826 79.9263 44.2001 80.1968 45.3274C80.4416 46.3478 82.5793 45.8249 83.703 45.4316Z" fill="white"/>
<rect width="0.620133" height="0.639324" transform="matrix(0.906667 -0.42328 0.361657 0.932687 103.486 34.1213)" fill="#005CFF"/>
<rect width="0.620133" height="0.639324" transform="matrix(0.906667 -0.42328 0.361657 0.932687 104.319 33.7457)" fill="#005CFF"/>
<rect width="0.620131" height="0.639324" transform="matrix(0.906667 -0.42328 0.361657 0.932688 105.152 33.37)" fill="#005CFF"/>
<rect width="0.620133" height="0.639324" transform="matrix(0.906667 -0.42328 0.361657 0.932687 105.985 32.9944)" fill="#005CFF"/>
<rect width="0.620131" height="0.639324" transform="matrix(0.906667 -0.42328 0.361657 0.932688 106.818 32.6187)" fill="#005CFF"/>
<rect width="0.620133" height="0.639324" transform="matrix(0.906667 -0.42328 0.361657 0.932687 107.651 32.2431)" fill="#005CFF"/>
<line x1="133.425" y1="36" x2="193.425" y2="36" stroke="black" stroke-opacity="0.25" stroke-width="2"/>
<defs>
<linearGradient id="paint0_linear_70_350" x1="111.952" y1="27.2434" x2="77.9303" y2="55.1194" gradientUnits="userSpaceOnUse">
<stop offset="0.182292" stop-color="#2692D1"/>
<stop offset="1" stop-color="#0B3491"/>
</linearGradient>
</defs>
</svg>
