<svg width="575" height="575" viewBox="0 0 575 575" fill="none" xmlns="http://www.w3.org/2000/svg">
<circle cx="287.471" cy="287.471" r="195" fill="url(#paint0_linear_11_58)"/>
<path d="M287.929 272.747L215.497 302.513C228.511 316.782 277.758 312.909 301.483 310.416L375.642 285.681L447.158 258.618C466.22 248.275 416.385 239.699 412.826 240.073C409.268 240.448 385.949 246.808 385.949 246.808L384.356 243.066L397.779 233.836C388.804 230.61 372.686 234.736 365.75 237.203L323.484 257.282L327.991 265.93L223.234 193.542L264.647 245.223C245.095 269.17 263.549 261.41 275.22 254.536L310.669 295.116L287.929 272.747Z" fill="white"/>
<path d="M182.531 354.013L288.177 320.757C279.636 321.655 253.64 323.084 243.879 321.503C221.389 317.862 210.36 310.692 175.487 286.992C147.588 268.032 128.249 267.377 123.379 270.495C130.914 277.522 149.633 290.133 160.135 300.692C169.523 310.13 180.698 325.165 173.89 328.86C150.062 341.789 152.725 344.294 154.859 353.192C156.791 361.245 173.662 357.117 182.531 354.013Z" fill="white"/>
<rect width="4.89415" height="5.04562" transform="matrix(0.906667 -0.42328 0.361657 0.932687 338.661 264.752)" fill="#005CFF"/>
<rect width="4.89415" height="5.04562" transform="matrix(0.906667 -0.42328 0.361657 0.932687 345.235 261.787)" fill="#005CFF"/>
<rect width="4.89415" height="5.04562" transform="matrix(0.906667 -0.42328 0.361657 0.932687 351.808 258.823)" fill="#005CFF"/>
<rect width="4.89415" height="5.04562" transform="matrix(0.906667 -0.42328 0.361657 0.932687 358.382 255.858)" fill="#005CFF"/>
<rect width="4.89415" height="5.04562" transform="matrix(0.906667 -0.42328 0.361657 0.932687 364.955 252.893)" fill="#005CFF"/>
<rect width="4.89415" height="5.04562" transform="matrix(0.906667 -0.42328 0.361657 0.932687 371.529 249.929)" fill="#005CFF"/>
<defs>
<linearGradient id="paint0_linear_11_58" x1="405.471" y1="210.471" x2="136.971" y2="430.471" gradientUnits="userSpaceOnUse">
<stop offset="0.182292" stop-color="#2692D1"/>
<stop offset="1" stop-color="#0B3491"/>
</linearGradient>
</defs>
</svg>
